<svg width="10mm" height="10mm" version="1.1" viewBox="0 0 10 10" xmlns="http://www.w3.org/2000/svg" xmlns:xlink="http://www.w3.org/1999/xlink">
 <g transform="translate(-29.028 -268.75)">

  <rect x="29.035" y="268.76" width="9.9864" height="9.9864" fill="#F8B983" stroke="#F8B983" stroke-width=".013572" style="paint-order:markers fill stroke"/>

  <path  d="m36.165 272.83a0.42783 0.42783 0 0 0-0.64188-0.33603c-0.23812 0.12198-0.32941 0.36169-0.52917 0.56489a9.0038 9.0038 0 0 0-0.97472 1.1213c-0.46884-0.35533-0.75142-0.96308-1.1964-1.378-0.19685-0.18626-0.7403-0.63976-1.0036-0.23971-0.17754 0.2675 0.16484 0.60114 0.32544 0.7702 0.08334 0.0921 0.21405 0.30824 0.3175 0.44292 0.17542 0.22674 0.44715 0.33813 0.62256 0.56277 0.17542 0.22463 0.39688 0.60854 0.70194 0.7575 0.40137 0.19685 0.60457-0.28628 0.82286-0.57732a6.1709 6.1709 0 0 1 0.69532-0.78105c0.2032-0.1905 0.85593-0.58632 0.85593-0.91784z" fill="#fff" stroke-width=".26458"/>

  <rect x="54.483" y="61.463" width="61.61" height="51.783" opacity="0" stroke-width=".052917" style="paint-order:markers fill stroke"/>

 </g>
</svg>
